<?xml version="1.0" encoding="UTF-8" standalone="no"?>
<!-- Created with Inkscape (http://www.inkscape.org/) -->

<svg
   width="140"
   height="40"
   viewBox="0 0 37.041666 10.583337"
   version="1.1"
   id="svg5"
   inkscape:version="1.1.1 (1:1.1+202109281949+c3084ef5ed)"
   sodipodi:docname="logo_loja.svg"
   xmlns:inkscape="http://www.inkscape.org/namespaces/inkscape"
   xmlns:sodipodi="http://sodipodi.sourceforge.net/DTD/sodipodi-0.dtd"
   xmlns="http://www.w3.org/2000/svg"
   xmlns:svg="http://www.w3.org/2000/svg">
  <sodipodi:namedview
     id="namedview7"
     pagecolor="#ffffff"
     bordercolor="#666666"
     borderopacity="1.0"
     inkscape:pageshadow="2"
     inkscape:pageopacity="0.0"
     inkscape:pagecheckerboard="0"
     inkscape:document-units="mm"
     showgrid="false"
     units="px"
     height="49px"
     inkscape:zoom="0.905042"
     inkscape:cx="76.792016"
     inkscape:cy="16.573816"
     inkscape:window-width="1366"
     inkscape:window-height="701"
     inkscape:window-x="0"
     inkscape:window-y="0"
     inkscape:window-maximized="1"
     inkscape:current-layer="layer1" />
  <defs
     id="defs2" />
  <g
     inkscape:label="Camada 1"
     inkscape:groupmode="layer"
     id="layer1">
    <g
       id="g32">
      <g
         aria-label="Sensual"
         id="text1046"
         style="font-size:10.2427px;line-height:1.25;font-family:Vivaldi;-inkscape-font-specification:Vivaldi;stroke-width:0.384099">
        <path
           d="m 11.007438,1.952745 0.06146,0.1638832 q -0.286795,0.1331551 -0.624804,0.2765529 -0.338009,0.1433978 -0.7579602,0.2970383 0.010243,-0.040971 0.010243,-0.071699 0.010243,-0.030728 0.020485,-0.061456 0,-0.010243 0,-0.020485 0,-0.020485 0.010243,-0.030728 0,-0.040971 0.010243,-0.092184 0.010243,-0.061456 0.020485,-0.1433978 0.040971,-0.3482518 0.051214,-0.4609215 0.020485,-0.1126697 0.020485,-0.1843686 0,-0.010243 0,-0.020485 0,-0.020485 0,-0.040971 0,-0.1536404 -0.071699,-0.2253393 -0.071699,-0.081942 -0.2150967,-0.081942 -0.1433978,0 -0.338009,0.061456 Q 9.0203544,1.3689112 8.8257431,1.4610955 8.6721026,1.5225516 8.5287048,1.6147359 8.385307,1.6966775 8.2623946,1.7888618 8.0165698,1.9732304 7.8526866,2.1883271 7.6888034,2.4034238 7.6171045,2.6287632 7.5966191,2.7107048 7.5761337,2.7926464 7.565891,2.874588 7.565891,2.9565296 q 0,0.2765529 0.2253394,0.3584945 0.2355821,0.071699 1.0345127,0.071699 0.010243,-0.071699 0.010243,-0.1331551 0.010243,-0.061456 0.010243,-0.081942 0,-0.2150967 -0.030728,-0.3994653 -0.030728,-0.1843686 -0.092184,-0.3482518 0.2663102,0.061456 0.3789799,0.2765529 0.1229123,0.2150967 0.1229123,0.6043193 0,0 0,0.020485 0,0.010243 0,0.030728 0,0.010243 0,0.020485 0,0 0,0.010243 0.2560675,-0.010243 0.3789799,-0.010243 0.1229124,0 0.2253394,0 0.040971,0 0.081942,0 0.040971,0 0.1024268,0 0.297039,0 0.450679,0.020485 0.163883,0.010243 0.286796,0.061456 0.01024,0 0.02048,0.010243 0.01024,0 0.02049,0 0.358495,0.1331551 0.542863,0.409708 0.184369,0.2765529 0.184369,0.6657754 0,1.2905802 -1.003784,2.3148502 -0.9935424,1.0242699 -2.2431517,1.0242699 -0.5223777,0 -0.921843,-0.204854 Q 6.9615717,7.4735601 6.6850188,7.0433667 6.3470098,7.2584634 5.9475445,7.4223466 5.5583219,7.5759871 5.1486139,7.6784141 4.8618183,7.750113 4.5852654,7.7910838 q -0.2663102,0.030728 -0.5223777,0.030728 -1.6388319,0 -2.6426165,-1.0140272 -1.00378453,-1.0140273 -1.00378453,-2.6835873 0,-1.433978 0.76820243,-2.355821 0.7682025,-0.92184293 1.9563557,-0.92184293 0.747717,0 1.3827644,0.33800913 0.6452901,0.3277663 1.0652408,0.9320856 0.020485,0.030728 0.030728,0.061456 0.020485,0.020485 0.040971,0.040971 0.102427,0.1638832 0.1946113,0.3380091 0.092184,0.1638832 0.1741259,0.3789799 0.051214,0.1229124 0.102427,0.2663102 0.051213,0.1331551 0.102427,0.2970383 0.020485,0.051213 0.030728,0.102427 0.020485,0.051213 0.030728,0.102427 0.010243,0.020485 0.010243,0.030728 0,0.010243 0.010243,0.020485 0.051213,0.1946113 0.1126697,0.4199507 0.071699,0.2253393 0.1843685,0.6145619 l 0.081942,0.307281 0.081942,0.2970383 q 0.081942,0.2663102 0.1331551,0.4711642 0.061456,0.1946113 0.1229124,0.3482518 0.020485,0.071699 0.051214,0.1433978 0.030728,0.071699 0.061456,0.1433978 Q 7.2278819,6.4492902 7.3098235,6.387834 7.3917651,6.3263778 7.4737067,6.2444362 7.7502596,5.9883687 8.0063271,5.6196315 8.2726373,5.2508943 8.4672486,4.851429 8.5696756,4.6363323 8.6413745,4.4212356 8.7233161,4.1958963 8.7540442,4.001285 H 8.5287048 q -0.8399014,0 -1.1881532,-0.1331551 Q 7.0025425,3.7247321 7.0025425,3.386723 q 0,-0.1843686 0.081942,-0.409708 Q 7.1766684,2.7414329 7.3303089,2.5058508 7.4839494,2.2805114 7.6785607,2.0654147 7.873172,1.8400753 8.0985114,1.6557067 8.1394822,1.6249786 8.180453,1.5942505 8.2214238,1.5635224 8.2726373,1.5327943 8.692588,1.2357561 9.1739949,1.0616302 9.6656444,0.88750427 10.495303,0.73386378 q 0.03073,0 0.06146,0 0.04097,-0.0102427 0.0717,-0.0204854 -0.03073,0.11266969 -0.05121,0.19461129 -0.01024,0.0716989 -0.02049,0.14339783 -0.01024,0.030728 -0.02048,0.061456 0,0.030728 0,0.071699 l -0.03073,0.1638832 q -0.05121,0.2663101 -0.06146,0.3175236 0,0.051214 -0.01024,0.071699 0,0 0,0.010243 0,0 0,0.010243 -0.01024,0.071699 -0.02049,0.1229124 0,0.051214 0,0.071699 0,0.061456 0.03073,0.102427 0.04097,0.040971 0.09218,0.040971 0.02048,0 0.04097,0 0.02049,0 0.05121,-0.010243 0.02049,0 0.04097,0 0.02049,-0.010243 0.04097,-0.020485 0.102427,-0.040971 0.143398,-0.061456 0.05121,-0.020485 0.08194,-0.030728 0,0 0,0 0.01024,0 0.01024,0 0.01024,0 0.02048,0 0.02049,-0.010243 0.04097,-0.020485 z M 9.2559364,3.9910423 H 9.1330241 Q 9.0818106,4.1958963 8.999869,4.4109929 8.9179274,4.6260896 8.8052577,4.8411863 8.5287048,5.3738067 8.1087541,5.875699 7.6990461,6.3673486 7.2278819,6.695115 7.4839494,7.2277353 7.770745,7.442832 q 0.2970383,0.204854 0.7682025,0.204854 0.9628137,0 1.7002885,-0.7989305 0.747717,-0.7989306 0.747717,-1.8232006 0,-0.5735912 -0.327767,-0.7989306 Q 10.341663,4.001285 9.5120039,4.001285 L 9.2559364,3.9910423 Z M 6.2445828,5.9166698 5.8451175,4.441721 Q 5.3739533,2.6799767 4.6979351,1.8912888 4.0321596,1.0923583 3.0283751,1.0923583 q -1.0345127,0 -1.6285893,0.7067462 -0.58383384,0.6965036 -0.58383384,1.9358703 0,1.5466476 1.06524074,2.6528592 1.0652408,1.0959688 2.5606749,1.0959688 0.204854,0 0.3994653,-0.020485 0.204854,-0.020485 0.3994653,-0.061456 0.3277664,-0.071699 0.6657755,-0.204854 0.3380091,-0.1331551 0.6965035,-0.3277663 -0.040971,-0.092184 -0.071699,-0.1536405 -0.030728,-0.071699 -0.051213,-0.1433978 -0.010243,0 -0.010243,-0.010243 0,-0.010243 -0.010243,-0.020485 Q 6.4391941,6.490261 6.4187087,6.4390475 6.3982233,6.3775913 6.3777379,6.3161351 L 6.2445828,5.9166698 Z"
           id="path90" />
        <path
           d="m 14.24413,5.6401169 q 0.03073,0.051214 0.04097,0.092184 0.02049,0.040971 0.02049,0.071699 0.01024,0.020485 0.01024,0.040971 0,0.020485 0,0.040971 0,0.1741259 -0.11267,0.3994653 -0.102427,0.2150967 -0.297038,0.4506788 -0.08194,0.092184 -0.174126,0.1843686 -0.08194,0.081942 -0.184368,0.1638831 -0.450679,0.409708 -0.850144,0.614562 -0.399466,0.204854 -0.696504,0.204854 -0.26631,0 -0.430193,-0.1741259 -0.153641,-0.1741259 -0.153641,-0.4814069 0,-0.2355821 0.05121,-0.4814068 0.05121,-0.2560675 0.143397,-0.512135 0.184369,-0.5018923 0.512135,-0.9730565 0.327767,-0.4814069 0.75796,-0.8399014 0.153641,-0.1229124 0.317524,-0.235582 0.163883,-0.1126697 0.327766,-0.204854 0.297038,-0.1536405 0.573591,-0.2458248 0.276553,-0.092184 0.501893,-0.092184 0.184368,0 0.286795,0.071699 0.102427,0.071699 0.102427,0.2150967 0,0.102427 -0.06146,0.2458248 -0.06146,0.133155 -0.174126,0.2765528 -0.102427,0.1331551 -0.245825,0.2663102 -0.133155,0.1229124 -0.286795,0.2253394 -0.11267,0.071699 -0.256068,0.1433978 -0.133155,0.071699 -0.276553,0.1229124 -0.194611,0.081942 -0.378979,0.1331551 -0.174126,0.051213 -0.286796,0.051213 -0.122912,0 -0.204854,-0.061456 -0.0717,-0.061456 -0.122912,-0.1946113 0.112669,0.010243 0.174125,0.020485 0.0717,0 0.133156,0 0.01024,0 0.01024,0 0.01024,0 0.02049,0 0.01024,0 0.02049,0 0.02048,0 0.04097,0 0.460921,-0.020485 0.850144,-0.2765529 0.399465,-0.2663102 0.440436,-0.5735912 0,-0.010243 0,-0.020485 0,-0.020485 0,-0.030728 0,-0.1126696 -0.08194,-0.1741258 -0.08194,-0.061456 -0.225339,-0.061456 -0.143398,0 -0.307281,0.061456 -0.153641,0.051214 -0.307281,0.1536404 -0.163883,0.102427 -0.327766,0.2560675 -0.153641,0.1433978 -0.297039,0.3277664 -0.174126,0.2253394 -0.317523,0.4711642 -0.143398,0.2458248 -0.245825,0.5018923 -0.133155,0.307281 -0.204854,0.614562 -0.0717,0.2970383 -0.0717,0.5531057 0,0.2458248 0.11267,0.3789799 0.112669,0.1331551 0.317523,0.1331551 0.133155,0 0.266311,-0.040971 0.143397,-0.051214 0.286795,-0.1331551 0.358495,-0.2150967 0.686261,-0.6555327 0.338009,-0.4404361 0.573591,-1.02427 z"
           id="path92" />
        <path
           d="m 17.808579,7.1253083 0.08194,0.1331551 q -0.317524,0.2253394 -0.655533,0.3687372 -0.338009,0.1433978 -0.768203,0.2253394 0,-0.030728 0,-0.061456 0.01024,-0.040971 0.02049,-0.081942 0.04097,-0.2150967 0.122912,-0.4609215 0.08194,-0.2458248 0.235582,-0.6248046 0.11267,-0.2867956 0.26631,-0.5940766 0.153641,-0.3175237 0.327767,-0.6657755 l 0.112669,-0.204854 0.102427,-0.2150967 0.11267,-0.204854 q 0.09218,-0.1843686 0.122913,-0.2663102 0.04097,-0.092184 0.04097,-0.1433978 0,-0.061456 -0.03073,-0.092184 -0.03073,-0.040971 -0.08194,-0.040971 -0.122913,0 -0.419951,0.2253393 -0.297038,0.2150967 -0.635047,0.5428631 -0.133156,0.1331551 -0.266311,0.2765529 -0.133155,0.1433978 -0.256067,0.2867956 -0.37898,0.4404361 -0.696504,0.9730565 -0.317523,0.5326203 -0.583834,1.1369396 -0.02048,0 -0.04097,0.010243 -0.02049,0 -0.04097,0.010243 -0.11267,0.030728 -0.245825,0.081942 -0.133155,0.040971 -0.327766,0.1229124 0.02048,-0.020485 0.04097,-0.051214 0.01024,-0.040971 0.02049,-0.071699 0.02049,-0.051213 0.04097,-0.102427 0.03073,-0.061456 0.05121,-0.1126697 0.163883,-0.3584945 0.348252,-0.7886878 0.184369,-0.4404361 0.471164,-1.1369397 0.245825,-0.6043193 0.327767,-0.8501441 0.08194,-0.2458248 0.08194,-0.3789799 0,-0.081942 -0.04097,-0.1229124 -0.03073,-0.051213 -0.102427,-0.051213 -0.01024,0 -0.02049,0 0,0 -0.01024,0 -0.04097,0 -0.112669,0.020485 -0.06146,0.020485 -0.235583,0.071699 l -0.03073,-0.1638831 q 0.05121,-0.010243 0.09218,-0.020485 0.05121,-0.020485 0.09218,-0.030728 0.184369,-0.061456 0.348252,-0.1126697 0.163883,-0.051213 0.327766,-0.1229124 0.11267,-0.040971 0.22534,-0.092184 0.122912,-0.051213 0.245824,-0.102427 0.01024,0.030728 0.01024,0.051214 0,0.020485 0,0.040971 0,0.2150967 -0.194611,0.7579597 -0.194612,0.5428631 -0.532621,1.2803375 0.911601,-1.02427 1.587619,-1.5568904 0.686261,-0.542863 1.095969,-0.542863 0.112669,0 0.174126,0.071699 0.0717,0.061456 0.0717,0.1741259 0,0.1638832 -0.122912,0.4506787 -0.11267,0.2765529 -0.53262,1.0857262 -0.06146,0.1229124 -0.143398,0.2765529 -0.08194,0.1536405 -0.153641,0.3175237 -0.01024,0.020485 -0.02049,0.040971 -0.01024,0.010243 -0.02049,0.030728 -0.08194,0.1741259 -0.174126,0.3482518 -0.08194,0.1741259 -0.143398,0.3175237 -0.0717,0.1331551 -0.102427,0.235582 -0.03073,0.092184 -0.03073,0.1433978 0,0.061456 0.03073,0.102427 0.04097,0.040971 0.102427,0.040971 0.04097,0 0.11267,-0.020485 0.08194,-0.030728 0.163883,-0.061456 0.04097,-0.020485 0.08194,-0.040971 0.04097,-0.030728 0.08194,-0.061456 z"
           id="path94" />
        <path
           d="M 19.406439,5.8654563 19.304012,5.6503596 q -0.03073,-0.071699 -0.05121,-0.1433978 -0.02049,-0.081942 -0.02049,-0.1638832 -0.01024,-0.030728 -0.01024,-0.051214 0,-0.030728 0,-0.061456 0,-0.204854 0.112669,-0.4301934 0.11267,-0.2355821 0.327767,-0.4814069 0.04097,-0.030728 0.0717,-0.071699 0.04097,-0.040971 0.08194,-0.081942 0.04097,-0.040971 0.08194,-0.071699 0.04097,-0.040971 0.08194,-0.071699 0.22534,-0.1843686 0.481407,-0.2560675 0.256068,-0.081942 0.614562,-0.081942 0.06146,0 0.102427,0.010243 0.05121,0 0.102427,0 0.03073,0 0.06146,0.010243 0.03073,0 0.0717,0.010243 -0.02049,0.040971 -0.03073,0.061456 -0.01024,0.010243 -0.02049,0.020485 -0.01024,0.020485 -0.03073,0.051213 -0.01024,0.020485 -0.05121,0.092184 -0.122912,0.2150967 -0.194611,0.3277663 -0.06146,0.102427 -0.11267,0.1843686 0,0 0,0.010243 0,0 -0.01024,0 -0.03073,0.051213 -0.0717,0.1229124 -0.04097,0.061456 -0.102427,0.1536405 L 20.656049,4.646575 q 0.02049,-0.020485 0.02049,-0.040971 0.01024,-0.030728 0.02049,-0.040971 0.06146,-0.1229124 0.08194,-0.1843686 0.02049,-0.071699 0.02049,-0.1126697 0,-0.1024269 -0.08194,-0.1433977 -0.0717,-0.051214 -0.245825,-0.051214 -0.307281,0 -0.542863,0.235582 -0.225339,0.2253394 -0.225339,0.5223777 0,0.071699 0.03073,0.1741259 0.03073,0.092184 0.0717,0.204854 l 0.08194,0.1741259 0.0717,0.1638832 0.08194,0.1741259 q 0.04097,0.092184 0.0717,0.1946113 0.03073,0.102427 0.04097,0.204854 0.01024,0.051213 0.01024,0.092184 0,0.040971 0,0.081942 0,0.204854 -0.06146,0.3892226 -0.06146,0.1843686 -0.204854,0.3584944 -0.08194,0.102427 -0.194611,0.2150967 -0.102427,0.102427 -0.245825,0.2150967 -0.286796,0.2253394 -0.522378,0.3277664 -0.235582,0.092184 -0.460921,0.092184 -0.245825,0 -0.409708,-0.1229124 -0.163884,-0.1229124 -0.163884,-0.3277664 0,-0.051214 0.01024,-0.102427 0.01024,-0.061456 0.02049,-0.1229124 0.02048,-0.061456 0.04097,-0.1126697 0.02049,-0.061456 0.05121,-0.1126697 0.163883,0.2765529 0.338009,0.409708 0.184368,0.1229124 0.419951,0.1229124 0.368737,0 0.64529,-0.2458248 0.276553,-0.2560675 0.276553,-0.5838338 0,-0.061456 -0.02049,-0.1229124 -0.01024,-0.071699 -0.03073,-0.1433978 -0.01024,-0.030728 -0.02048,-0.061456 -0.01024,-0.040971 -0.03073,-0.071699 L 19.508866,6.080553 19.406439,5.8654563 Z"
           id="path96" />
        <path
           d="m 21.997827,5.5479326 -0.143398,0.2970383 q -0.03073,0.071699 -0.122912,0.2663102 -0.08194,0.1843686 -0.194611,0.4506788 -0.102427,0.2150967 -0.143398,0.3380091 -0.04097,0.1229123 -0.04097,0.2048539 0,0.102427 0.05121,0.1638832 0.05121,0.051214 0.133156,0.051214 0.245824,0 0.594076,-0.2867956 0.348252,-0.2970382 0.778445,-0.850144 0.153641,-0.204854 0.276553,-0.3789799 0.133155,-0.1843686 0.245825,-0.3584945 0.11267,-0.1741259 0.215097,-0.3584945 0.102427,-0.1843686 0.194611,-0.3994653 0.08194,-0.1638832 0.163883,-0.3482518 0.08194,-0.1946112 0.163883,-0.4199506 0.04097,-0.010243 0.08194,-0.010243 0.04097,-0.010243 0.08194,-0.020485 0.112669,-0.020485 0.235582,-0.051214 0.122912,-0.040971 0.276552,-0.102427 -0.02048,0.030728 -0.04097,0.061456 -0.01024,0.030728 -0.03073,0.061456 -0.01024,0.030728 -0.02049,0.051214 -0.01024,0.020485 -0.02049,0.051213 -0.0717,0.1433978 -0.153641,0.3175236 -0.0717,0.1638832 -0.184368,0.4199507 -0.358495,0.819416 -0.501893,1.1471824 -0.133155,0.3277664 -0.225339,0.5633485 0,0.010243 0,0.020485 0,0 0,0 -0.01024,0.020485 -0.02049,0.040971 0,0.010243 -0.01024,0.030728 -0.09218,0.2560675 -0.122912,0.3584945 -0.03073,0.1024269 -0.03073,0.1741258 0,0.071699 0.04097,0.1126697 0.05121,0.040971 0.133155,0.040971 0.0717,0 0.163884,-0.020485 0.09218,-0.030728 0.225339,-0.081942 l 0.0717,0.1331551 q -0.194611,0.102427 -0.512135,0.2355821 -0.317524,0.1331551 -0.829659,0.3277664 0.03073,-0.1843686 0.06146,-0.3482518 0.03073,-0.1638832 0.0717,-0.3277664 0.0717,-0.2458247 0.153641,-0.5018922 0.09218,-0.2560675 0.215096,-0.5633485 -0.64529,0.8091733 -1.229124,1.2803374 -0.573591,0.4609215 -0.952571,0.4609215 -0.143397,0 -0.235582,-0.092184 -0.09218,-0.102427 -0.09218,-0.2560675 0,-0.2355821 0.133155,-0.5940765 0.133155,-0.3687372 0.481407,-1.1062116 0.37898,-0.7989306 0.471164,-1.0140273 0.102427,-0.2253394 0.122913,-0.3380091 0,-0.010243 0,-0.020485 0,-0.020485 0,-0.030728 0,-0.081942 -0.05121,-0.1229123 -0.04097,-0.040971 -0.122912,-0.040971 -0.04097,0 -0.102427,0.010243 -0.06146,0.010243 -0.174126,0.051213 l -0.04097,-0.1536404 q 0.276553,-0.081942 0.49165,-0.1433978 0.225339,-0.071699 0.409708,-0.1433978 0.09218,-0.040971 0.174125,-0.071699 0.09219,-0.040971 0.174126,-0.071699 0,0.081942 -0.01024,0.1638832 -0.01024,0.071699 -0.02049,0.1331551 -0.02049,0.071699 -0.05121,0.1536405 -0.02049,0.071699 -0.05121,0.1536404 -0.06146,0.1638832 -0.143398,0.3380091 -0.0717,0.1741259 -0.174125,0.3789799 l -0.143398,0.2867956 -0.143398,0.2970383 z"
           id="path98" />
        <path
           d="m 27.805435,7.0843375 0.09218,0.1331551 q -0.256067,0.1946113 -0.635047,0.3482518 -0.368737,0.1536405 -0.809173,0.2663102 0.02049,-0.2458248 0.163883,-0.6862609 0.15364,-0.440436 0.430193,-1.0447553 -0.174126,0.2150967 -0.358494,0.409708 -0.184369,0.1843686 -0.37898,0.3584945 -0.481407,0.4506787 -0.932086,0.7169889 -0.450679,0.2663102 -0.737474,0.2663102 -0.163883,0 -0.245825,-0.1126697 -0.09218,-0.1229124 -0.09218,-0.3380091 0,-0.1741259 0.04097,-0.3584945 0.03073,-0.1843685 0.09219,-0.3584944 0.348252,-0.9423284 1.382764,-1.7719871 1.044756,-0.8296586 2.222666,-1.1062115 0.225339,-0.051214 0.450679,-0.081942 0.225339,-0.030728 0.450679,-0.030728 0.08194,0 0.122912,0.030728 0.04097,0.030728 0.04097,0.092184 0,0.030728 -0.03073,0.1229124 -0.03073,0.092184 -0.08194,0.1843686 0,0.020485 -0.01024,0.040971 -0.01024,0.010243 -0.02049,0.030728 -0.133155,-0.020485 -0.256068,-0.030728 -0.122912,-0.020485 -0.235582,-0.030728 -0.04097,0 -0.08194,0 -0.04097,0 -0.08194,0 -0.696503,0 -1.249609,0.2150966 -0.542863,0.204854 -1.054998,0.6657755 -0.04097,0.030728 -0.08194,0.071699 -0.04097,0.030728 -0.08194,0.071699 -0.256068,0.2458248 -0.450679,0.512135 -0.184369,0.2560675 -0.317524,0.5223777 -0.102427,0.2150967 -0.15364,0.4301934 -0.05121,0.2150967 -0.05121,0.4199506 0,0.1843686 0.08194,0.2970383 0.08194,0.102427 0.215096,0.102427 0.163884,0 0.419951,-0.1843686 0.256068,-0.1843686 0.522378,-0.4711641 0.215096,-0.2253394 0.409708,-0.4916496 0.204854,-0.2663102 0.358494,-0.5428631 0.09219,-0.1638832 0.163883,-0.307281 0.08194,-0.1536405 0.143398,-0.2970383 0.0717,-0.1843686 0.122913,-0.3687372 0.06146,-0.1946113 0.112669,-0.409708 0.11267,0.071699 0.163884,0.1843686 0.05121,0.102427 0.05121,0.2970383 0,0.2458248 -0.122912,0.5223777 -0.11267,0.2663102 -0.368738,0.5838339 0.05121,0 0.09218,0 0.05121,-0.010243 0.09218,-0.020485 0.0717,-0.010243 0.163883,-0.030728 0.09219,-0.030728 0.245825,-0.081942 -0.01024,0.020485 -0.02049,0.040971 0,0.010243 -0.01024,0.030728 0,0 0,0 0,0 0,0 -0.02049,0.051214 -0.06146,0.1331551 -0.03073,0.071699 -0.122913,0.307281 -0.194611,0.4404361 -0.245824,0.5940766 -0.05121,0.1433977 -0.05121,0.2253393 0,0.051214 0.04097,0.102427 0.04097,0.040971 0.09218,0.030728 0.0717,-0.010243 0.163883,-0.051214 0.102427,-0.051214 0.286796,-0.1536405 z"
           id="path100" />
        <path
           d="m 29.976869,1.6557067 -0.05121,-0.1433978 q 0.450679,-0.1741258 0.686261,-0.2663101 0.245825,-0.092184 0.419951,-0.1741259 0.02049,-0.010243 0.04097,-0.020485 0.02049,-0.010243 0.04097,-0.020485 0.03073,-0.010243 0.06146,-0.020485 0.03073,-0.0204854 0.06146,-0.0409708 0,0.35849453 -0.184369,0.89111483 -0.174126,0.5223777 -0.624804,1.5568904 -0.37898,0.8706294 -0.686261,1.6285892 -0.307281,0.7579598 -0.512135,1.3008229 -0.11267,0.2867956 -0.174126,0.4916496 -0.05121,0.1946112 -0.05121,0.2970382 0,0.102427 0.05121,0.1638832 0.05121,0.051213 0.122912,0.051213 0,0 0,0 0,0 0.01024,0 0,0 0,0 0,0 0,0 0.01024,0 0.01024,0 0.01024,0 0.01024,0 0.08194,-0.010243 0.184369,-0.081942 0.11267,-0.071699 0.358494,-0.2663102 l 0.09218,0.1331551 q -0.08194,0.071699 -0.163884,0.1433978 -0.08194,0.061456 -0.163883,0.1229124 -0.256067,0.1946113 -0.491649,0.3175237 -0.235582,0.1229124 -0.358495,0.1229124 -0.133155,0 -0.215096,-0.1126697 -0.08194,-0.1126697 -0.08194,-0.307281 0,-0.2355821 0.09218,-0.5735911 0.102427,-0.3380091 0.368737,-1.02427 0.01024,-0.020485 0.02049,-0.040971 0.01024,-0.030728 0.02049,-0.051213 0,0 0,0 0,-0.010243 0,-0.010243 0.05121,-0.1126697 0.11267,-0.2560675 0.06146,-0.1536405 0.194611,-0.4814069 0.06146,-0.1638832 0.11267,-0.2765529 0.05121,-0.1126697 0.09218,-0.2150967 0.06146,-0.1433978 0.133155,-0.3175236 0.0717,-0.1843686 0.204854,-0.512135 L 29.884684,3.284296 30.038325,2.9053161 q 0.235582,-0.5735912 0.327766,-0.8399014 0.102427,-0.2663102 0.102427,-0.3584945 0,-0.061456 -0.04097,-0.092184 -0.04097,-0.040971 -0.11267,-0.040971 -0.01024,0 -0.02049,0 0,0 -0.01024,0 -0.02049,0 -0.06146,0.010243 -0.04097,0.010243 -0.163884,0.051214 -0.01024,0 -0.02049,0.010243 -0.01024,0 -0.02049,0 -0.01024,0 -0.02049,0.010243 -0.01024,0 -0.02049,0 z"
           id="path102" />
      </g>
      <g
         aria-label="moda intima"
         id="text3088"
         style="font-size:2.50712px;line-height:1.25;font-family:'Cooper Std';-inkscape-font-specification:'Cooper Std';stroke-width:0.470086">
        <path
           d="m 13.148027,9.5263888 c 0,0.31339 -0.150427,0.2532191 -0.150427,0.3660395 0,0.1328777 0.29584,0.1303707 0.393617,0.1303707 0.343476,0 0.40114,-0.08775 0.40114,-0.1529348 0,-0.090256 -0.06769,-0.075214 -0.06769,-0.3058686 V 9.3609189 c 0,-0.092764 -0.01254,-0.2632476 0.127864,-0.2632476 0.142905,0 0.13037,0.2256408 0.13037,0.3158971 v 0.1429058 c 0.0075,0.2983473 -0.117835,0.1930482 -0.120342,0.3259256 -0.0025,0.070199 0.01755,0.1403992 0.396125,0.1403992 0.09026,0 0.391111,-0.0025 0.391111,-0.1579491 0,-0.092763 -0.09026,-0.040114 -0.09026,-0.3484896 V 9.3609189 c 0,-0.092764 -0.01253,-0.2632476 0.127863,-0.2632476 0.142906,0 0.130371,0.210598 0.130371,0.3158971 v 0.2256408 c 0,0.1454129 -0.08775,0.1429058 -0.08775,0.2356692 0,0.1303706 0.290825,0.1479206 0.37356,0.1479206 0.09778,0 0.38359,-0.0075 0.38359,-0.1654704 0,-0.072707 -0.09276,-0.085242 -0.09276,-0.230655 V 9.0976713 c 0,-0.2456978 -0.14792,-0.376068 -0.386096,-0.376068 -0.127863,0 -0.228148,0.055157 -0.303362,0.1103133 -0.07271,0.057664 -0.117834,0.1128203 -0.137891,0.1128203 -0.05265,0 -0.05516,-0.2231336 -0.353504,-0.2231336 -0.14792,0 -0.248205,0.055157 -0.318404,0.1103133 -0.0702,0.057664 -0.110314,0.1128203 -0.135385,0.1128203 -0.05265,0 -0.04262,-0.085242 -0.04262,-0.1153275 0,-0.052649 -0.005,-0.1078061 -0.06769,-0.1078061 -0.005,0 -0.62678,0.070199 -0.62678,0.2557262 0,0.065185 0.0351,0.062678 0.06769,0.090256 0.02507,0.022564 0.05766,0.067692 0.05766,0.2281479 z"
           id="path105" />
        <path
           d="m 16.246827,10.03032 c 0.368546,0 0.8098,-0.2507121 0.8098,-0.6618798 0,-0.3108829 -0.250712,-0.6543583 -0.689458,-0.6543583 -0.413675,0 -0.807293,0.2532191 -0.807293,0.7019936 0,0.3961249 0.315897,0.6142445 0.686951,0.6142445 z m 0.233162,-0.4713387 c 0,0.080228 -0.02006,0.1604557 -0.115327,0.1554415 -0.172992,-0.010028 -0.21812,-0.396125 -0.228148,-0.5540735 -0.005,-0.072707 0.04011,-0.1504272 0.122848,-0.1504272 0.170485,0 0.220627,0.4362388 0.220627,0.5490592 z"
           id="path107" />
        <path
           d="m 18.102094,9.2982409 c 0,0.1103132 0.01003,0.418689 -0.157948,0.418689 -0.155442,0 -0.185527,-0.2055839 -0.185527,-0.3234185 0,-0.1178346 0.03008,-0.4061534 0.198062,-0.4061534 0.145413,0 0.145413,0.2131052 0.145413,0.3108829 z m 0.554074,-0.9251273 c 0,-0.082735 -0.01755,-0.1353845 -0.09276,-0.1353845 -0.0075,0 -0.646837,0.047635 -0.646837,0.2331622 0,0.1353845 0.18302,0.052649 0.18302,0.2080909 0,0.027578 -0.0025,0.1103133 -0.04011,0.1103133 -0.02758,0 -0.125356,-0.075214 -0.298347,-0.075214 -0.345983,0 -0.616752,0.3259256 -0.616752,0.6593726 0,0.3083757 0.255727,0.6568655 0.584159,0.6568655 0.110313,0 0.188034,-0.037607 0.245698,-0.072707 0.05766,-0.037607 0.09527,-0.072706 0.117835,-0.072706 0.08273,0 -0.0075,0.1378921 0.120341,0.1378921 0.02758,0 0.576638,-0.01254 0.576638,-0.2030772 0,-0.1303702 -0.132877,-0.072707 -0.132877,-0.2482049 z"
           id="path109" />
        <path
           d="m 19.513599,9.4561894 c 0.0702,0 0.06769,0.062678 0.06769,0.1178346 0,0.075214 -0.0075,0.1780056 -0.102792,0.1780056 -0.07271,0 -0.107806,-0.070199 -0.107806,-0.1353845 0,-0.080228 0.05766,-0.1604557 0.142906,-0.1604557 z m 0.60923,-0.3108829 c 0,-0.3760679 -0.39111,-0.4312246 -0.534016,-0.4312246 -0.238177,0 -0.66188,0.1378916 -0.66188,0.3509968 0,0.080228 0.06017,0.1378916 0.140399,0.1378916 0.223133,0 0.238176,-0.270769 0.388603,-0.270769 0.115328,0 0.117835,0.1729913 0.117835,0.2557263 0,0.090256 -0.0351,0.085242 -0.11282,0.085242 -0.441254,0 -0.611738,0.2206265 -0.611738,0.398632 0,0.2482049 0.208091,0.3585183 0.416182,0.3585183 0.115328,0 0.190541,-0.032593 0.245698,-0.065185 0.05516,-0.030085 0.08775,-0.062678 0.117835,-0.062678 0.06268,0 0.06769,0.1278633 0.265754,0.1278633 0.18302,0 0.378575,-0.1554416 0.378575,-0.2983474 0,-0.1353845 -0.150427,0.105299 -0.150427,-0.3359541 z"
           id="path111" />
        <path
           d="m 21.862765,8.8319166 c 0,-0.05265 -0.0025,-0.1103133 -0.07772,-0.1103133 -0.02507,0 -0.66188,0.075214 -0.66188,0.2532191 0,0.1128204 0.127863,0.085242 0.150427,0.1729913 0.02758,0.092763 0.02257,0.4562958 -0.01003,0.544045 -0.03008,0.077721 -0.132877,0.082735 -0.132877,0.1729912 0,0.060171 0.01755,0.1579491 0.448774,0.1579491 0.11282,0 0.431225,0 0.431225,-0.1704846 0,-0.1328774 -0.14792,-0.025071 -0.14792,-0.3209114 z m -0.01254,-0.4362389 c 0,-0.125356 -0.142906,-0.1579486 -0.243191,-0.1579486 -0.127863,0 -0.458803,0.067692 -0.458803,0.2331622 0,0.1228489 0.112821,0.1704841 0.21812,0.1704841 0.142906,0 0.483874,-0.050142 0.483874,-0.2456977 z"
           id="path113" />
        <path
           d="m 22.785379,9.3834829 c 0,-0.1128204 -0.01504,-0.2858116 0.145413,-0.2858116 0.23567,0 0.16547,0.4011391 0.152935,0.5791447 -0.01254,0.1629628 -0.09527,0.1203417 -0.09527,0.210598 0,0.140399 0.240684,0.135385 0.33094,0.135385 0.471338,0 0.46131,-0.1052995 0.46131,-0.1504277 0,-0.1078061 -0.102792,-0.062678 -0.115328,-0.2607405 -0.02507,-0.3810822 0.06268,-0.8900275 -0.456295,-0.8900275 -0.142906,0 -0.21812,0.052649 -0.268262,0.1027919 -0.05014,0.05265 -0.07271,0.105299 -0.112821,0.105299 -0.03761,0 -0.05014,-0.0351 -0.05014,-0.065185 0,-0.015043 0.0025,-0.030085 0.0025,-0.045128 0,-0.050142 -0.0351,-0.097778 -0.09026,-0.097778 -0.05014,0 -0.62678,0.125356 -0.62678,0.2582333 0,0.1328774 0.152934,0.072706 0.14792,0.2582334 l -0.01003,0.376068 c -0.0075,0.2456977 -0.122848,0.1378916 -0.122848,0.2582333 0,0.1504277 0.255726,0.1504277 0.356011,0.1504277 0.102791,0 0.436238,0.005 0.436238,-0.1504277 0,-0.09527 -0.08524,-0.052649 -0.08524,-0.2958401 z"
           id="path115" />
        <path
           d="m 24.618084,9.0801214 c 0,-0.090256 0.005,-0.092763 0.09276,-0.092763 h 0.172991 c 0.09778,0 0.115328,-0.010029 0.115328,-0.1529343 0,-0.1128204 0,-0.1203418 -0.107807,-0.1203418 h -0.175498 c -0.06518,0 -0.08273,0 -0.09026,-0.020057 -0.01254,-0.030086 -0.0075,-0.1078062 -0.0075,-0.1855269 0,-0.1153275 -0.005,-0.105299 -0.105299,-0.105299 -0.07521,0 -0.07271,-0.00752 -0.13037,0.027578 l -0.571623,0.3635324 c -0.03009,0.020057 -0.02256,0.047635 -0.02256,0.082735 0,0.057664 -0.005,0.082735 0.01253,0.1002848 0.01254,0.012536 0.04513,0.010029 0.110314,0.010029 0.05766,0 0.08524,-0.00501 0.09778,0.00251 0.01254,0.00752 0.01254,0.025071 0.01254,0.070199 v 0.5164667 c 0,0.398632 0.320911,0.4537888 0.448774,0.4537888 0.253219,0 0.539031,-0.1454131 0.539031,-0.310883 0,-0.045128 -0.0351,-0.1153275 -0.08524,-0.1153275 -0.04513,0 -0.09026,0.057664 -0.167977,0.057664 -0.06769,0 -0.137892,-0.040114 -0.137892,-0.2080909 z"
           id="path117" />
        <path
           d="m 25.791415,8.8319166 c 0,-0.05265 -0.0025,-0.1103133 -0.07772,-0.1103133 -0.02507,0 -0.66188,0.075214 -0.66188,0.2532191 0,0.1128204 0.127863,0.085242 0.150427,0.1729913 0.02758,0.092763 0.02256,0.4562958 -0.01003,0.544045 -0.03009,0.077721 -0.132878,0.082735 -0.132878,0.1729912 0,0.060171 0.01755,0.1579491 0.448775,0.1579491 0.11282,0 0.431225,0 0.431225,-0.1704846 0,-0.1328774 -0.14792,-0.025071 -0.14792,-0.3209114 z m -0.01254,-0.4362389 c 0,-0.125356 -0.142906,-0.1579486 -0.243191,-0.1579486 -0.127863,0 -0.458803,0.067692 -0.458803,0.2331622 0,0.1228489 0.112821,0.1704841 0.21812,0.1704841 0.142906,0 0.483874,-0.050142 0.483874,-0.2456977 z"
           id="path119" />
        <path
           d="m 26.142407,9.5263888 c 0,0.31339 -0.150427,0.2532191 -0.150427,0.3660395 0,0.1328777 0.29584,0.1303707 0.393617,0.1303707 0.343476,0 0.40114,-0.08775 0.40114,-0.1529348 0,-0.090256 -0.06769,-0.075214 -0.06769,-0.3058686 V 9.3609189 c 0,-0.092764 -0.01253,-0.2632476 0.127864,-0.2632476 0.142905,0 0.13037,0.2256408 0.13037,0.3158971 v 0.1429058 c 0.0075,0.2983473 -0.117835,0.1930482 -0.120342,0.3259256 -0.0025,0.070199 0.01755,0.1403992 0.396125,0.1403992 0.09026,0 0.391111,-0.0025 0.391111,-0.1579491 0,-0.092763 -0.09026,-0.040114 -0.09026,-0.3484896 V 9.3609189 c 0,-0.092764 -0.01253,-0.2632476 0.127863,-0.2632476 0.142906,0 0.130371,0.210598 0.130371,0.3158971 v 0.2256408 c 0,0.1454129 -0.08775,0.1429058 -0.08775,0.2356692 0,0.1303706 0.290825,0.1479206 0.37356,0.1479206 0.09778,0 0.38359,-0.0075 0.38359,-0.1654704 0,-0.072707 -0.09276,-0.085242 -0.09276,-0.230655 V 9.0976713 c 0,-0.2456978 -0.14792,-0.376068 -0.386096,-0.376068 -0.127863,0 -0.228148,0.055157 -0.303362,0.1103133 -0.07271,0.057664 -0.117834,0.1128203 -0.137891,0.1128203 -0.05265,0 -0.05516,-0.2231336 -0.353504,-0.2231336 -0.14792,0 -0.248205,0.055157 -0.318404,0.1103133 -0.0702,0.057664 -0.110314,0.1128203 -0.135385,0.1128203 -0.05265,0 -0.04262,-0.085242 -0.04262,-0.1153275 0,-0.052649 -0.005,-0.1078061 -0.06769,-0.1078061 -0.005,0 -0.62678,0.070199 -0.62678,0.2557262 0,0.065185 0.0351,0.062678 0.06769,0.090256 0.02507,0.022564 0.05766,0.067692 0.05766,0.2281479 z"
           id="path121" />
        <path
           d="m 29.208614,9.4561894 c 0.0702,0 0.06769,0.062678 0.06769,0.1178346 0,0.075214 -0.0075,0.1780056 -0.102792,0.1780056 -0.07271,0 -0.107806,-0.070199 -0.107806,-0.1353845 0,-0.080228 0.05766,-0.1604557 0.142906,-0.1604557 z m 0.60923,-0.3108829 c 0,-0.3760679 -0.391111,-0.4312246 -0.534016,-0.4312246 -0.238177,0 -0.66188,0.1378916 -0.66188,0.3509968 0,0.080228 0.06017,0.1378916 0.140399,0.1378916 0.223133,0 0.238176,-0.270769 0.388603,-0.270769 0.115328,0 0.117835,0.1729913 0.117835,0.2557263 0,0.090256 -0.0351,0.085242 -0.11282,0.085242 -0.441254,0 -0.611738,0.2206265 -0.611738,0.398632 0,0.2482049 0.208091,0.3585183 0.416182,0.3585183 0.115328,0 0.190541,-0.032593 0.245698,-0.065185 0.05516,-0.030085 0.08775,-0.062678 0.117835,-0.062678 0.06268,0 0.06769,0.1278633 0.265754,0.1278633 0.18302,0 0.378575,-0.1554416 0.378575,-0.2983474 0,-0.1353845 -0.150427,0.105299 -0.150427,-0.3359541 z"
           id="path123" />
      </g>
      <g
         id="g6815">
        <g
           id="g6801"
           transform="translate(0,0.17354492)">
          <path
             id="path4836"
             style="fill:none;stroke:#000000;stroke-width:0.5"
             d="M 34.856202,4.1035743 A 1.7394991,1.7394991 0 0 1 33.116703,5.8430734 1.7394991,1.7394991 0 0 1 31.377204,4.1035743 1.7394991,1.7394991 0 0 1 33.116703,2.3640752 1.7394991,1.7394991 0 0 1 34.856202,4.1035743 Z" />
          <g
             id="g6795">
            <path
               style="fill:none;stroke:#000000;stroke-width:0.5;stroke-linecap:butt;stroke-linejoin:miter;stroke-miterlimit:4;stroke-dasharray:none;stroke-opacity:1"
               d="m 33.116702,5.9877243 c 0,1.7462853 0,1.7462853 0,1.7462853"
               id="path5097" />
            <path
               style="fill:none;stroke:#000000;stroke-width:0.5;stroke-linecap:butt;stroke-linejoin:miter;stroke-miterlimit:4;stroke-dasharray:none;stroke-opacity:1"
               d="M 33.989762,6.8728013 C 32.243641,6.8489326 32.243641,6.8489326 32.243641,6.8489326"
               id="path5261" />
          </g>
        </g>
        <g
           id="g6805"
           transform="rotate(-45,34.355094,2.9810333)">
          <path
             id="circle5263"
             style="fill:none;stroke:#000000;stroke-width:0.5"
             transform="rotate(-45)"
             d="m 24.014115,26.176739 a 1.7394991,1.7394991 0 0 1 -1.739499,1.739499 1.7394991,1.7394991 0 0 1 -1.739499,-1.739499 1.7394991,1.7394991 0 0 1 1.739499,-1.739499 1.7394991,1.7394991 0 0 1 1.739499,1.739499 z" />
          <path
             id="rect6100"
             style="fill:#000000;fill-opacity:1;stroke:#000000;stroke-width:0.22;stroke-miterlimit:4;stroke-dasharray:none;stroke-opacity:1"
             d="m 36.98961,1.984248 0.634857,0.631035 -1.333188,0.0071 0.0015,0.281971 1.33482,-0.0071 -0.634078,0.637905 0.399631,-0.0021 0.57378,-0.5773859 0.198806,-0.19996 -0.199958,-0.198806 -0.578446,-0.574787 z" />
        </g>
      </g>
    </g>
  </g>
</svg>
